<?xml version="1.0" encoding="utf-8"?>
<!-- Generator: Adobe Illustrator 22.1.0, SVG Export Plug-In . SVG Version: 6.00 Build 0)  -->
<svg version="1.1" id="Layer_1" xmlns="http://www.w3.org/2000/svg" xmlns:xlink="http://www.w3.org/1999/xlink" x="0px" y="0px"
	 viewBox="0 0 204 27" style="enable-background:new 0 0 204 27;" xml:space="preserve">
<style type="text/css">
	.st0{fill:#006CFF;}
</style>
<path class="st0" d="M35,21.5h0.1L34.9,21c-0.5-0.5-1.1-1.4-1.9-1.4h-1.6c-0.7,0.4-1.4,0.9-2.1,1.4c-0.4,0.5-0.7,1.3-0.7,2v0.2
	l0.5,0.3v0.2c0.5,0.6,1,1.1,1.8,1.3l0.3,0.4l0.3-0.2c1.1,0.1,2.1-0.3,3.2-0.7l0.6-0.7l0.1-1.3L35,21.5z M64.5,3.7
	C64.9,4.4,65.5,5,66,5.6l0.2,0.1c0.9-0.3,1.7-0.4,2.5-1c0.1-0.3,0.4-1,0.4-1.3C69,2.2,68,1,66.7,1C65.1,1,64.5,2.3,64.5,3.7z
	 M61.3,15.9c0-0.8-1.1-2.3-2-2.3c-1,0-2,1-2,2c0,1.1,1.2,2.3,2.4,2.3C60.5,17.9,61.3,16.8,61.3,15.9z M77.6,6.8c0,1,0.9,2.3,2,2.3
	c1,0,1.6-1.1,1.6-2c0-1.1-1.1-2-2.1-2C78.3,5.1,77.6,5.9,77.6,6.8z M17.4,14.7c0,0.9,0.5,1.9,1.5,1.9c0.9,0,1.7-0.9,1.7-1.8
	c0-0.9-0.7-1.6-1.6-1.6C18.2,13.2,17.4,13.9,17.4,14.7z M11.3,7.4c0.6-0.3,1.2-1,1.2-1.7l-1.3-1.3c-0.8,0-1.4,0.7-1.4,1.5
	S10.5,7.4,11.3,7.4z M40,9.6c0-0.7-0.6-1.3-1.3-1.3l-1.3,1.2c0,0.8,0.5,1.6,1.4,1.6C39.6,11.1,40,10.3,40,9.6z M44.6,22.5l1,1.2
	l1-0.9l-1-1.1L44.6,22.5z M40.2,20.1v0.4l0.9,0.7l0.9-0.8l-0.8-0.8L40.2,20.1z M79.9,11.3l-1.3-0.9L78,10.9l0.9,1.2L79.9,11.3z
	 M60.5,12.5l0.7-1l-0.8-0.8l-0.7,0.6L60.5,12.5z M76.4,7.5l0.4-0.2l0.1-1.6l-0.4-0.1L76,6.8L76.4,7.5z M56.6,18l0.7,0.6l0.7-0.7
	l-0.5-0.6L56.6,18z M6,19.2h0.1H6l-1.8-0.8H3.9L6,19.2z M2.5,19c0.3,0.1,0.7,0.2,1,0.4v-0.1L2.6,19H2.5z M53.8,5.1L54,4.7l-0.2-0.2
	l-0.3,0.3L53.8,5.1z M2.5,19l-0.1-0.2l-0.3-0.1L2,18.9c0.1,0,0.2,0.1,0.3,0.1H2.5z M52.3,10.6c0.1-0.1,0.1-0.1,0.1-0.2l-0.1-0.1
	l-0.1,0.1C52.2,10.5,52.2,10.5,52.3,10.6z M5.3,17.8c-0.1-0.1-0.2-0.1-0.3-0.2H4.9L5,17.8H5.3z M63.8,7.2l-0.3-0.1l-0.1,0.1l0.1,0.1
	L63.8,7.2z M44.8,4.9c0.1,0,0.1,0,0.1-0.1c0-0.1,0-0.1-0.1-0.1h-0.1C44.7,4.8,44.8,4.8,44.8,4.9z M3.1,18.7L3.1,18.7l0.1-0.1
	C3.1,18.6,3.1,18.6,3.1,18.7z"/>
<path class="st0" d="M35,21.5h0.1L34.9,21c-0.5-0.5-1.1-1.4-1.9-1.4h-1.6c-0.7,0.4-1.4,0.9-2.1,1.4c-0.4,0.5-0.7,1.3-0.7,2v0.2
	l0.5,0.3v0.2c0.5,0.6,1,1.1,1.8,1.3l0.3,0.4l0.3-0.2c1.1,0.1,2.1-0.3,3.2-0.7l0.6-0.7l0.1-1.3L35,21.5z M64.5,3.7
	C64.9,4.4,65.5,5,66,5.6l0.2,0.1c0.9-0.3,1.7-0.4,2.5-1c0.1-0.3,0.4-1,0.4-1.3C69,2.2,68,1,66.7,1C65.1,1,64.5,2.3,64.5,3.7z
	 M61.3,15.9c0-0.8-1.1-2.3-2-2.3c-1,0-2,1-2,2c0,1.1,1.2,2.3,2.4,2.3C60.5,17.9,61.3,16.8,61.3,15.9z M77.6,6.8c0,1,0.9,2.3,2,2.3
	c1,0,1.6-1.1,1.6-2c0-1.1-1.1-2-2.1-2C78.3,5.1,77.6,5.9,77.6,6.8z M17.4,14.7c0,0.9,0.5,1.9,1.5,1.9c0.9,0,1.7-0.9,1.7-1.8
	c0-0.9-0.7-1.6-1.6-1.6C18.2,13.2,17.4,13.9,17.4,14.7z M11.3,7.4c0.6-0.3,1.2-1,1.2-1.7l-1.3-1.3c-0.8,0-1.4,0.7-1.4,1.5
	S10.5,7.4,11.3,7.4z M40,9.6c0-0.7-0.6-1.3-1.3-1.3l-1.3,1.2c0,0.8,0.5,1.6,1.4,1.6C39.6,11.1,40,10.3,40,9.6z M44.6,22.5l1,1.2
	l1-0.9l-1-1.1L44.6,22.5z M40.2,20.1v0.4l0.9,0.7l0.9-0.8l-0.8-0.8L40.2,20.1z M79.9,11.3l-1.3-0.9L78,10.9l0.9,1.2L79.9,11.3z
	 M60.5,12.5l0.7-1l-0.8-0.8l-0.7,0.6L60.5,12.5z M76.4,7.5l0.4-0.2l0.1-1.6l-0.4-0.1L76,6.8L76.4,7.5z M56.6,18l0.7,0.6l0.7-0.7
	l-0.5-0.6L56.6,18z M6,19.2h0.1H6l-1.8-0.8H3.9L6,19.2z M2.5,19c0.3,0.1,0.7,0.2,1,0.4v-0.1L2.6,19H2.5z M53.8,5.1L54,4.7l-0.2-0.2
	l-0.3,0.3L53.8,5.1z M2.5,19l-0.1-0.2l-0.3-0.1L2,18.9c0.1,0,0.2,0.1,0.3,0.1H2.5z M52.3,10.6c0.1-0.1,0.1-0.1,0.1-0.2l-0.1-0.1
	l-0.1,0.1C52.2,10.5,52.2,10.5,52.3,10.6z M5.3,17.8c-0.1-0.1-0.2-0.1-0.3-0.2H4.9L5,17.8H5.3z M63.8,7.2l-0.3-0.1l-0.1,0.1l0.1,0.1
	L63.8,7.2z M44.8,4.9c0.1,0,0.1,0,0.1-0.1c0-0.1,0-0.1-0.1-0.1h-0.1C44.7,4.8,44.8,4.8,44.8,4.9z M3.1,18.7L3.1,18.7l0.1-0.1
	C3.1,18.6,3.1,18.6,3.1,18.7z"/>
<path class="st0" d="M111.7,24.4c10-3,24.6-1.1,33.3-4.9c1.9,0.2,5.7,0.2,7.6-0.3l1.1,0.6c2.5-0.2,4.8-0.8,7.1-1.7l-5.1,0.5
	l-0.3-0.1l0.3-0.1c1-0.2,1.9-0.3,3-0.4l6.1-0.9l-0.1-0.2l-1.5,0.1c3.1-0.8,6.3-0.5,9.4-1.1l-1-0.1c1.2-0.5,2.6-0.3,3.8-0.4l-1.7-0.1
	l-0.2-0.1l0.1-0.1c1.4-0.5,3-0.6,4.5-0.7l0.1,0.1l0.5,0.2l1.2-0.5h-0.7l0.2-0.1c7.5-0.8,15.3-1.1,22.6-2l0.1-0.2l-0.1-0.1
	c-6.7-1.9-13.8-1.9-20.7-1.9c-18.7,0-37.5,2.2-56,5.1c-5.4,0.9-10.6,2.8-16.2,2.8h-0.5c2.4-2.8,13.7-9.1,17.4-11
	c0.9-0.4,3.7-1.5,3.1-2.9V3.6c0.2-0.3,0.2-0.5,0.2-0.8c0-1.7-4.5-1-5.6-1.4l-1,0.2c-0.7,0.5-1.6,0.7-2.6,0.7l-0.3-0.1
	c-15,1.7-36.9,8.5-50.9,14.4c-0.1,1.6,0.7,5.4,2.9,5.4c8,0,15.3-5.8,23-5.8c1.5,0,3.3,0.3,4.8,0.5l0.2,0.6c-0.7,0.8-1.2,1.9-1.2,3
	c0,2.8,2,5.8,5.1,5.8c2.3,0,4.4-0.8,6.7-1.2l0.6,0.5L111.7,24.4z M102.6,14.6l-1.9-0.3l-0.2-0.2l0.2-0.1l1.3-0.4
	c0.5-0.2,3.7-1.1,4-1.1h0.2l-0.2,0.1C104.9,13.2,103.8,14.2,102.6,14.6z M97.2,15.5h0.3c0,0,0.1,0.1,0.4,0l-0.5-0.3
	c0.3-0.1,1.4,0.2,1.8,0.3v0.3l-0.9,0.3L97.2,15.5z M161.7,17h-0.1c-0.7,0.1-1.5,0.3-2.3,0.1l2.3-0.2L161.7,17z M155.8,17.2l0.3,0.1
	l-0.6,0.2l-0.2-0.1L155.8,17.2z M173.5,15h-0.9H173.5L173.5,15z M157.4,13.8l0.1-0.1l0.8-0.1v0.1C158,13.7,157.7,13.7,157.4,13.8z
	 M154.2,18.9l-0.1-0.2l0.3-0.2l0.2,0.1L154.2,18.9z M156,13.8c-0.2,0.1-0.3,0.1-0.5,0.1l0.2-0.1H156z M96.5,15.7l-0.2-0.2l0.2-0.1
	l0.1,0.1L96.5,15.7z M166.8,15.2h0.4l0.2,0.1C167.2,15.3,167,15.3,166.8,15.2z M169.3,15.1c-0.1,0-0.1,0-0.1,0.1l-0.1-0.1V15
	C169.2,15.1,169.2,15.1,169.3,15.1z M169.1,15.7l0.1,0.1l-0.1,0.1c-0.1,0-0.1,0-0.1-0.1C169.1,15.8,169.1,15.8,169.1,15.7z
	 M171.1,15h0.1c0.1,0,0.1,0,0.1,0.1h-0.1C171.1,15.1,171.1,15.1,171.1,15z M152.8,14.2c0-0.1,0-0.1-0.1-0.1h0.2L152.8,14.2z
	 M152.5,14.5c-0.1,0-0.1,0-0.1-0.1h0.2C152.5,14.4,152.5,14.4,152.5,14.5z M178.6,14.4L178.6,14.4h0.1H178.6z M197.3,17.6l0.2-0.1
	l-0.8-0.9l-0.9,0.3l-1-0.1l-0.7,0.3l-1.1,1.6l0.5,1l1.5,0.3c0.6-0.2,1.1-0.7,1.6-1.1l-0.1-0.2l0.1-0.6L197,19l0.2-0.2L197.3,17.6z
	 M194,18.9l-0.2-0.2h0.2l0.2,0.1L194,18.9z M196.3,17.8l-0.2-0.2l0.1-0.1l0.1,0.1V17.8z M183.7,21.6l0.1,0.2l1-0.7l-0.7-0.7l-2,0.2
	l-0.3-0.3l-0.5,0.9l-1,0.3l-0.4,0.3l0.5,0.2L183.7,21.6z M188.8,20.1c-0.1,0-0.6-0.2-0.6,0.1v0.3L190,21h0.1l0.4-0.7l-1.2-0.5
	l-0.2-0.3C188.9,19.5,189,20.1,188.8,20.1z M185.6,20.8l1.1-0.8l-0.1-0.3l-0.6,0.1l-0.8,0.8L185.6,20.8z M115.3,23.8l0.3-0.2h-0.2
	c-0.1,0-0.2,0.1-0.3,0.1L115.3,23.8z M189.9,19.4c0.1-0.1,0.2-0.1,0.3-0.2l-0.2-0.1C190,19.2,190,19.3,189.9,19.4z M197.5,18.2
	c0.1,0,0.2,0.1,0.3,0.1h0.2l-0.1-0.2L197.5,18.2z M190.3,17.5l0.2,0.1l0.1-0.2l-0.1-0.1L190.3,17.5z M196.2,19.7l0.2-0.1
	c0.1,0,0.1,0,0.2-0.1h-0.2L196.2,19.7z M189.9,19.4l-0.1,0.1v0.1C189.9,19.5,189.9,19.5,189.9,19.4z M103.3,2.9h-0.1V3
	C103.3,3,103.3,3,103.3,2.9z M188,19.6c0.1,0,0.1,0,0.1-0.1v0.1H188z M191.8,18.8h0.1v-0.1L191.8,18.8L191.8,18.8z M197.7,16.8
	l-0.1,0.1L197.7,16.8h0.1H197.7z M114.4,25.8h-0.1C114.4,25.8,114.4,25.8,114.4,25.8L114.4,25.8z M128.4,22.7c0-0.1,0-0.1-0.1-0.1
	v0.1H128.4z"/>
<path class="st0" d="M111.7,24.4c10-3,24.6-1.1,33.3-4.9c1.9,0.2,5.7,0.2,7.6-0.3l1.1,0.6c2.5-0.2,4.8-0.8,7.1-1.7l-5.1,0.5
	l-0.3-0.1l0.3-0.1c1-0.2,1.9-0.3,3-0.4l6.1-0.9l-0.1-0.2l-1.5,0.1c3.1-0.8,6.3-0.5,9.4-1.1l-1-0.1c1.2-0.5,2.6-0.3,3.8-0.4l-1.7-0.1
	l-0.2-0.1l0.1-0.1c1.4-0.5,3-0.6,4.5-0.7l0.1,0.1l0.5,0.2l1.2-0.5h-0.7l0.2-0.1c7.5-0.8,15.3-1.1,22.6-2l0.1-0.2l-0.1-0.1
	c-6.7-1.9-13.8-1.9-20.7-1.9c-18.7,0-37.5,2.2-56,5.1c-5.4,0.9-10.6,2.8-16.2,2.8h-0.5c2.4-2.8,13.7-9.1,17.4-11
	c0.9-0.4,3.7-1.5,3.1-2.9V3.6c0.2-0.3,0.2-0.5,0.2-0.8c0-1.7-4.5-1-5.6-1.4l-1,0.2c-0.7,0.5-1.6,0.7-2.6,0.7l-0.3-0.1
	c-15,1.7-36.9,8.5-50.9,14.4c-0.1,1.6,0.7,5.4,2.9,5.4c8,0,15.3-5.8,23-5.8c1.5,0,3.3,0.3,4.8,0.5l0.2,0.6c-0.7,0.8-1.2,1.9-1.2,3
	c0,2.8,2,5.8,5.1,5.8c2.3,0,4.4-0.8,6.7-1.2l0.6,0.5L111.7,24.4z M102.6,14.6l-1.9-0.3l-0.2-0.2l0.2-0.1l1.3-0.4
	c0.5-0.2,3.7-1.1,4-1.1h0.2l-0.2,0.1C104.9,13.2,103.8,14.2,102.6,14.6z M97.2,15.5h0.3c0,0,0.1,0.1,0.4,0l-0.5-0.3
	c0.3-0.1,1.4,0.2,1.8,0.3v0.3l-0.9,0.3L97.2,15.5z M161.7,17h-0.1c-0.7,0.1-1.5,0.3-2.3,0.1l2.3-0.2L161.7,17z M155.8,17.2l0.3,0.1
	l-0.6,0.2l-0.2-0.1L155.8,17.2z M173.5,15h-0.9H173.5L173.5,15z M157.4,13.8l0.1-0.1l0.8-0.1v0.1C158,13.7,157.7,13.7,157.4,13.8z
	 M154.2,18.9l-0.1-0.2l0.3-0.2l0.2,0.1L154.2,18.9z M156,13.8c-0.2,0.1-0.3,0.1-0.5,0.1l0.2-0.1H156z M96.5,15.7l-0.2-0.2l0.2-0.1
	l0.1,0.1L96.5,15.7z M166.8,15.2h0.4l0.2,0.1C167.2,15.3,167,15.3,166.8,15.2z M169.3,15.1c-0.1,0-0.1,0-0.1,0.1l-0.1-0.1V15
	C169.2,15.1,169.2,15.1,169.3,15.1z M169.1,15.7l0.1,0.1l-0.1,0.1c-0.1,0-0.1,0-0.1-0.1C169.1,15.8,169.1,15.8,169.1,15.7z
	 M171.1,15h0.1c0.1,0,0.1,0,0.1,0.1h-0.1C171.1,15.1,171.1,15.1,171.1,15z M152.8,14.2c0-0.1,0-0.1-0.1-0.1h0.2L152.8,14.2z
	 M152.5,14.5c-0.1,0-0.1,0-0.1-0.1h0.2C152.5,14.4,152.5,14.4,152.5,14.5z M178.6,14.4L178.6,14.4h0.1H178.6z M197.3,17.6l0.2-0.1
	l-0.8-0.9l-0.9,0.3l-1-0.1l-0.7,0.3l-1.1,1.6l0.5,1l1.5,0.3c0.6-0.2,1.1-0.7,1.6-1.1l-0.1-0.2l0.1-0.6L197,19l0.2-0.2L197.3,17.6z
	 M194,18.9l-0.2-0.2h0.2l0.2,0.1L194,18.9z M196.3,17.8l-0.2-0.2l0.1-0.1l0.1,0.1V17.8z M183.7,21.6l0.1,0.2l1-0.7l-0.7-0.7l-2,0.2
	l-0.3-0.3l-0.5,0.9l-1,0.3l-0.4,0.3l0.5,0.2L183.7,21.6z M188.8,20.1c-0.1,0-0.6-0.2-0.6,0.1v0.3L190,21h0.1l0.4-0.7l-1.2-0.5
	l-0.2-0.3C188.9,19.5,189,20.1,188.8,20.1z M185.6,20.8l1.1-0.8l-0.1-0.3l-0.6,0.1l-0.8,0.8L185.6,20.8z M115.3,23.8l0.3-0.2h-0.2
	c-0.1,0-0.2,0.1-0.3,0.1L115.3,23.8z M189.9,19.4c0.1-0.1,0.2-0.1,0.3-0.2l-0.2-0.1C190,19.2,190,19.3,189.9,19.4z M197.5,18.2
	c0.1,0,0.2,0.1,0.3,0.1h0.2l-0.1-0.2L197.5,18.2z M190.3,17.5l0.2,0.1l0.1-0.2l-0.1-0.1L190.3,17.5z M196.2,19.7l0.2-0.1
	c0.1,0,0.1,0,0.2-0.1h-0.2L196.2,19.7z M189.9,19.4l-0.1,0.1v0.1C189.9,19.5,189.9,19.5,189.9,19.4z M103.3,2.9h-0.1V3
	C103.3,3,103.3,3,103.3,2.9z M188,19.6c0.1,0,0.1,0,0.1-0.1v0.1H188z M191.8,18.8h0.1v-0.1L191.8,18.8L191.8,18.8z M197.7,16.8
	l-0.1,0.1L197.7,16.8h0.1H197.7z M114.4,25.8h-0.1C114.4,25.8,114.4,25.8,114.4,25.8L114.4,25.8z M128.4,22.7c0-0.1,0-0.1-0.1-0.1
	v0.1H128.4z"/>
</svg>
