<svg xmlns="http://www.w3.org/2000/svg" viewBox="0 0 120.3 32"><defs><style>.cls-1{fill:#fff;}</style></defs><g id="Layer_2" data-name="Layer 2"><g id="Layer_1-2" data-name="Layer 1"><path class="cls-1" d="M19.35,27a1.48,1.48,0,0,1-.51.1l-1.93.06-1.66,0a16.91,16.91,0,0,1-4.8,3.72,8.85,8.85,0,0,1-4.16.92,8.5,8.5,0,0,1-2.6-.48,6.19,6.19,0,0,1-2.07-1.2A4.87,4.87,0,0,1,.33,28.37a4.26,4.26,0,0,1-.3-2.2,5.69,5.69,0,0,1,1.13-3.08,4.87,4.87,0,0,1,2-1.48,5.28,5.28,0,0,1,2.23-.32,7.23,7.23,0,0,1,1.75.32,1.79,1.79,0,0,1,.85.74,1.37,1.37,0,0,1,.19.87,1,1,0,0,1-.42.65.93.93,0,0,1-.89,0,2.32,2.32,0,0,0-1.66-.12,2.63,2.63,0,0,0-1.2.83,3,3,0,0,0-.59,1.36,2.78,2.78,0,0,0,.11,1.49,2.43,2.43,0,0,0,1,1.2,3.54,3.54,0,0,0,2,.48,6.86,6.86,0,0,0,4.23-1.84c-.58,0-.94-.18-1.08-.44a.88.88,0,0,1,0-.87,2.77,2.77,0,0,1,.83-.9,2.45,2.45,0,0,1,1.27-.46h.73c.31,0,.66,0,1.06,0a53.44,53.44,0,0,0,4.18-5.38C19.19,17.12,20.59,15,22,12.83S24.7,8.52,26,6.42s2.61-4,3.84-5.64A1.88,1.88,0,0,1,31,.05a1.92,1.92,0,0,1,1.2.11,1.34,1.34,0,0,1,.71.83,1.55,1.55,0,0,1-.27,1.31c-1.05,1.63-2.08,3.42-3.11,5.38s-2,3.94-2.85,5.93S25,17.53,24.36,19.38a40.39,40.39,0,0,0-1.49,4.92,12.3,12.3,0,0,0-.4,3.45c.07.88.39,1.31,1,1.31a2.55,2.55,0,0,0,.8-.16,7.73,7.73,0,0,0,1-.43,8.83,8.83,0,0,0,1-.65,7,7,0,0,0,.92-.78l1.29-1.31a15.63,15.63,0,0,0,1.06-1.27.9.9,0,0,1,.75-.43,1.7,1.7,0,0,1,.9.18,1.25,1.25,0,0,1,.6.58.7.7,0,0,1-.14.78l-1.24,1.49c-.52.63-1.18,1.34-2,2.14-.52.49-1,.91-1.42,1.24a7.19,7.19,0,0,1-1.29.83,5.38,5.38,0,0,1-1.33.46,8.25,8.25,0,0,1-1.57.14,3,3,0,0,1-2.76-1.34A6.14,6.14,0,0,1,19.35,27Zm.32-2.53a30.41,30.41,0,0,1,2-5.88c-.73,1.16-1.45,2.24-2.14,3.22s-1.35,1.88-2,2.71c.43,0,.83-.05,1.2-.05Zm12.74-6.2a1,1,0,0,1,.78-.53,2.71,2.71,0,0,1,1.17,0,1.88,1.88,0,0,1,.94.51.77.77,0,0,1,.14.92l-.27.55.18-.14a8.19,8.19,0,0,1,2.21-1.47,3.13,3.13,0,0,1,1.58-.28,1.85,1.85,0,0,1,1.11.56A3.67,3.67,0,0,1,41,19.45a2.68,2.68,0,0,1,0,2.05,17.09,17.09,0,0,1-1.17,2.55c-.34.68-.69,1.31-1.06,1.91s-.73,1.22-1.1,1.86a1.36,1.36,0,0,0-.25.67c0,.11.09.14.23.11a2.15,2.15,0,0,0,.48-.2,4.89,4.89,0,0,0,.5-.35,18.24,18.24,0,0,0,2-1.79,20,20,0,0,0,1.59-1.8A.93.93,0,0,1,43,24a1.59,1.59,0,0,1,.87.18,1.3,1.3,0,0,1,.58.58.75.75,0,0,1-.09.78c-.16.18-.36.45-.62.8s-.56.73-.9,1.13-.71.81-1.13,1.24-.83.83-1.26,1.2a8.42,8.42,0,0,1-2.23,1.51,4.14,4.14,0,0,1-1.75.39,2,2,0,0,1-1.26-.43,2.89,2.89,0,0,1-.79-1,2.72,2.72,0,0,1-.11-2,14.53,14.53,0,0,1,1.13-2.6c.12-.24.27-.53.46-.87s.37-.68.57-1,.38-.69.55-1a7.31,7.31,0,0,1,.48-.8c.19-.34.26-.56.23-.67s-.13-.14-.29-.11a2.51,2.51,0,0,0-.58.2c-.21.11-.41.23-.6.35-.49.34-1,.71-1.51,1.12a16.51,16.51,0,0,0-1.43,1.27c-.31.73-.62,1.47-.94,2.21l-.9,2.07c-.28.64-.51,1.19-.71,1.65s-.35.78-.44,1a1.49,1.49,0,0,1-1,.82,2.16,2.16,0,0,1-1.31,0,1.62,1.62,0,0,1-.94-.78,1.52,1.52,0,0,1,.09-1.45c.27-.61.65-1.42,1.12-2.41s1-2,1.48-3.13l1.47-3.2C31.66,19.88,32.07,19,32.41,18.26Zm17.51-1.15L46.1,23.82c-.33.61-.66,1.2-1,1.75a13.21,13.21,0,0,0-.79,1.52,7.58,7.58,0,0,0-.41,1.17q-.12.48.12.66a.62.62,0,0,0,.66.12,3.07,3.07,0,0,0,.92-.44c.32-.21.65-.46,1-.73s.64-.55.92-.83l1.29-1.31a15.63,15.63,0,0,0,1.06-1.27.9.9,0,0,1,.75-.43,1.7,1.7,0,0,1,.9.18,1.25,1.25,0,0,1,.6.58.7.7,0,0,1-.14.78c-.31.4-.72.9-1.24,1.52s-1.18,1.31-2,2.11c-.52.49-1,.91-1.42,1.24a7.19,7.19,0,0,1-1.29.83,5.38,5.38,0,0,1-1.33.46,7.94,7.94,0,0,1-1.52.14c-1.57,0-2.48-.64-2.74-1.91s.24-3,1.5-5.08c.15-.28.38-.69.69-1.24s.66-1.18,1.08-1.89l1.31-2.25c.46-.8.9-1.58,1.33-2.35a6.53,6.53,0,0,1-.78.05h-.83c-.64,0-1.06-.13-1.24-.39a.87.87,0,0,1-.05-.9,2.44,2.44,0,0,1,.83-.92,2.62,2.62,0,0,1,1.33-.46h1c.4,0,.84,0,1.33,0l1-1.66A1.85,1.85,0,0,1,50,12a2,2,0,0,1,1.2,0,1.38,1.38,0,0,1,.8.62,1,1,0,0,1-.06,1l-.46.78h1.28a6.52,6.52,0,0,0,1,0c.46,0,.73.14.83.4a1.1,1.1,0,0,1-.1.87,2.77,2.77,0,0,1-.73.92,1.68,1.68,0,0,1-1.11.44Zm14.54,7.35a1,1,0,0,1,.8-.43,1.74,1.74,0,0,1,.9.18,1.35,1.35,0,0,1,.6.58.71.71,0,0,1-.14.78c-.16.18-.36.45-.62.8s-.57.73-.92,1.13L64,28.74a15.52,15.52,0,0,1-1.24,1.2,8.52,8.52,0,0,1-2.21,1.51,3.74,3.74,0,0,1-1.7.37,2.09,2.09,0,0,1-1.24-.46,4.18,4.18,0,0,1-.87-1l-1.59,1a5.07,5.07,0,0,1-2.55.51,3.85,3.85,0,0,1-2.07-.55,3.24,3.24,0,0,1-1.29-1.57,5,5,0,0,1-.28-2.41A8.18,8.18,0,0,1,50,24.28a11.84,11.84,0,0,1,2.09-2.87,14.9,14.9,0,0,1,2.46-2,10.36,10.36,0,0,1,2.42-1.15,6.8,6.8,0,0,1,2-.37,3,3,0,0,1,1,.16,4.57,4.57,0,0,1,.8.39,3.63,3.63,0,0,1,.69.55,1.7,1.7,0,0,1,.92-.8A2.57,2.57,0,0,1,63.65,18a1.33,1.33,0,0,1,.88.44c.19.25.17.58-.07,1l-.92,1.82c-.37.72-.75,1.46-1.15,2.21l-1.13,2.11A16.3,16.3,0,0,1,60.41,27a1.14,1.14,0,0,0-.21.71c0,.14.18.2.39.19a1.83,1.83,0,0,0,.74-.26,3.56,3.56,0,0,0,.83-.64c.52-.55.94-1,1.26-1.31A9.46,9.46,0,0,0,64.46,24.46ZM57.7,25.75A9.5,9.5,0,0,0,58.82,24a10.17,10.17,0,0,0,.65-1.65A3.93,3.93,0,0,0,59.63,21a1.11,1.11,0,0,0-.42-.85,1.17,1.17,0,0,0-.94-.16,3.79,3.79,0,0,0-1.24.53,9,9,0,0,0-1.38,1.1,15.57,15.57,0,0,0-1.4,1.57A12.75,12.75,0,0,0,53.1,25a8.16,8.16,0,0,0-.67,1.63,3.64,3.64,0,0,0-.14,1.34,1.2,1.2,0,0,0,.44.85,1.08,1.08,0,0,0,.9.18,3.7,3.7,0,0,0,1.26-.5,7.9,7.9,0,0,0,1.4-1.11A12.68,12.68,0,0,0,57.7,25.75Zm6.76-1.29a25.08,25.08,0,0,0,2-2.64c.7-1.06,1.35-2,1.93-2.92a4.92,4.92,0,0,1-.85-1.68,7.2,7.2,0,0,1-.32-2,6,6,0,0,1,.25-1.91,2.92,2.92,0,0,1,1-1.44,3.33,3.33,0,0,1,1.93-.81,2.42,2.42,0,0,1,1.56.48A2.84,2.84,0,0,1,72.85,13a3.78,3.78,0,0,1,.12,1.9,5.29,5.29,0,0,1-.46,1.38c-.25.53-.54,1.09-.87,1.71a2.87,2.87,0,0,0,1.24,0,2.2,2.2,0,0,1,1.24.06,1.74,1.74,0,0,1,.78.58,1.26,1.26,0,0,1,.28.8,1,1,0,0,1-.28.72c-.12.12-.37.4-.73.82s-.79.95-1.27,1.54-1,1.24-1.45,1.91a22.4,22.4,0,0,0-1.26,1.93,9.08,9.08,0,0,0-.78,1.64c-.17.47-.15.79.06.94A1.28,1.28,0,0,0,70.9,29a8.23,8.23,0,0,0,1.93-1.13,18.23,18.23,0,0,0,2-1.7,18.49,18.49,0,0,0,1.56-1.68,1.16,1.16,0,0,1,.81-.39,1.9,1.9,0,0,1,.87.16,1.26,1.26,0,0,1,.58.56.71.71,0,0,1-.14.78,20.48,20.48,0,0,1-2,2.27,16.69,16.69,0,0,1-2.8,2.35,11,11,0,0,1-3.15,1.49,3.86,3.86,0,0,1-3-.27,2.26,2.26,0,0,1-1.33-1.89,5.7,5.7,0,0,1,.46-2.78,13.32,13.32,0,0,1,1.7-3,13.82,13.82,0,0,1,2.39-2.58,1.47,1.47,0,0,0,.39-.43c0-.08-.3-.24-.94-.49-.77,1.2-1.51,2.3-2.23,3.31s-1.21,1.69-1.45,2a1.13,1.13,0,0,1-.85.48,1.35,1.35,0,0,1-.85-.21,1.28,1.28,0,0,1-.53-.62A.74.74,0,0,1,64.46,24.46Zm5.89-11.08a.67.67,0,0,0-.58.3,1.84,1.84,0,0,0-.27.78,3.32,3.32,0,0,0,0,1,3.19,3.19,0,0,0,.37,1.06c.18-.37.35-.74.5-1.11a5.62,5.62,0,0,0,.33-1,1.61,1.61,0,0,0,0-.76A.38.38,0,0,0,70.35,13.38Zm13.74,3.73-3.82,6.71c-.34.61-.67,1.2-1,1.75a14.78,14.78,0,0,0-.78,1.52,6.65,6.65,0,0,0-.41,1.17c-.08.32,0,.54.11.66a.64.64,0,0,0,.67.12,3.07,3.07,0,0,0,.92-.44c.32-.21.65-.46,1-.73s.64-.55.92-.83c.55-.55,1-1,1.28-1.31A13.81,13.81,0,0,0,84,24.46.93.93,0,0,1,84.8,24a1.74,1.74,0,0,1,.9.18,1.35,1.35,0,0,1,.6.58.71.71,0,0,1-.14.78c-.31.4-.72.9-1.24,1.52s-1.18,1.31-2,2.11c-.52.49-1,.91-1.43,1.24a7.49,7.49,0,0,1-1.28.83,5.45,5.45,0,0,1-1.34.46,7.86,7.86,0,0,1-1.52.14c-1.56,0-2.47-.64-2.73-1.91s.24-3,1.49-5.08c.16-.28.39-.69.69-1.24l1.08-1.89c.42-.7.85-1.45,1.31-2.25s.91-1.58,1.34-2.35a6.53,6.53,0,0,1-.78.05h-.83c-.65,0-1.06-.13-1.24-.39a.85.85,0,0,1,0-.9,2.36,2.36,0,0,1,.83-.92,2.62,2.62,0,0,1,1.33-.46h1c.4,0,.84,0,1.33,0l1-1.66A1.9,1.9,0,0,1,84.18,12a2,2,0,0,1,1.2,0,1.45,1.45,0,0,1,.8.62,1,1,0,0,1-.07,1l-.46.78h1.29a6.52,6.52,0,0,0,1,0c.46,0,.73.14.82.4a1.09,1.09,0,0,1-.09.87,2.9,2.9,0,0,1-.73.92A1.68,1.68,0,0,1,86.8,17Zm7.64,7.35a.9.9,0,0,1,.75-.43,1.7,1.7,0,0,1,.9.18,1.25,1.25,0,0,1,.6.58.7.7,0,0,1-.14.78c-.31.4-.71.9-1.22,1.52a25.69,25.69,0,0,1-2,2.11c-.52.49-1,.91-1.42,1.24a7.19,7.19,0,0,1-1.29.83,5.38,5.38,0,0,1-1.33.46,7.94,7.94,0,0,1-1.52.14c-1.57,0-2.48-.64-2.74-1.91s.24-3,1.5-5.08c.27-.46.56-1,.87-1.54s.62-1.13.94-1.68l.92-1.56c.29-.49.55-.91.76-1.25A1.88,1.88,0,0,1,88.37,18a1.94,1.94,0,0,1,1.17,0,1.54,1.54,0,0,1,.81.62.93.93,0,0,1-.1,1c-.33.59-.72,1.27-1.15,2.05L88,23.82c-.33.61-.66,1.2-1,1.75a13.21,13.21,0,0,0-.79,1.52,7.58,7.58,0,0,0-.41,1.17q-.12.48.12.66a.62.62,0,0,0,.66.12,3.45,3.45,0,0,0,1-.44,12.1,12.1,0,0,0,1-.73c.33-.28.64-.55.92-.83l1.24-1.31A15.63,15.63,0,0,0,91.73,24.46Zm1.88-10.25A3.9,3.9,0,0,1,93,15a8.06,8.06,0,0,1-.59.55,4,4,0,0,1-1.25.5,2.54,2.54,0,0,1-1.08.05.75.75,0,0,1-.59-.46c-.11-.24,0-.58.25-1a7.91,7.91,0,0,1,.41-.71c.19-.29.35-.56.51-.81a1.48,1.48,0,0,1,1-.67,2.53,2.53,0,0,1,1.2.07,1.49,1.49,0,0,1,.82.65A1,1,0,0,1,93.61,14.21ZM92.1,23.59a12.79,12.79,0,0,1,2-2.69A12.38,12.38,0,0,1,96.58,19a7.16,7.16,0,0,1,2.58-.92,5,5,0,0,1,2.41.23,1.62,1.62,0,0,1,1.13,1.24,3.52,3.52,0,0,1-.26,1.77,6.61,6.61,0,0,1-1,1.8,9.47,9.47,0,0,1-1.25,1.31,1.43,1.43,0,0,1-1,.37,1.63,1.63,0,0,1-.9-.35,1.57,1.57,0,0,1-.5-.71.6.6,0,0,1,.18-.69l.78-.78a8.77,8.77,0,0,0,.79-.9,1.86,1.86,0,0,0,.36-.73c0-.2-.1-.3-.41-.3a2.17,2.17,0,0,0-1.06.34,6.3,6.3,0,0,0-1.24,1,12.59,12.59,0,0,0-1.29,1.45,13.57,13.57,0,0,0-1.19,1.79,3.7,3.7,0,0,0-.58,2.21,2.12,2.12,0,0,0,.81,1.49A2.66,2.66,0,0,0,96.7,29a5.8,5.8,0,0,0,2.57-.94,13,13,0,0,0,1.15-.78c.4-.31.78-.63,1.15-1s.71-.67,1-1a9.55,9.55,0,0,0,.78-.9.91.91,0,0,1,.74-.43,1.73,1.73,0,0,1,.85.16,1.19,1.19,0,0,1,.58.57.78.78,0,0,1-.1.81,10.26,10.26,0,0,1-.73.94c-.31.35-.66.73-1.06,1.13s-.82.79-1.26,1.19-.9.77-1.36,1.11a8.25,8.25,0,0,1-2.74,1.47,9.08,9.08,0,0,1-2.64.39,6,6,0,0,1-2.21-.42,3.25,3.25,0,0,1-1.42-1,3.79,3.79,0,0,1-.76-1.59A5.85,5.85,0,0,1,91.11,27a8.3,8.3,0,0,1,.32-1.79A7.47,7.47,0,0,1,92.1,23.59Zm25.84.87a1,1,0,0,1,.8-.43,1.72,1.72,0,0,1,.9.18,1.25,1.25,0,0,1,.6.58.71.71,0,0,1-.14.78c-.15.18-.36.45-.62.8s-.57.73-.92,1.13-.73.81-1.13,1.24a15.52,15.52,0,0,1-1.24,1.2A8.52,8.52,0,0,1,114,31.45a3.74,3.74,0,0,1-1.7.37,2.09,2.09,0,0,1-1.24-.46,4.18,4.18,0,0,1-.87-1l-1.59,1a5.07,5.07,0,0,1-2.55.51,3.85,3.85,0,0,1-2.07-.55,3.29,3.29,0,0,1-1.29-1.57,5,5,0,0,1-.27-2.41,8,8,0,0,1,1-3.06,11.87,11.87,0,0,1,2.1-2.87,14.12,14.12,0,0,1,2.46-2,10.12,10.12,0,0,1,2.41-1.15,6.81,6.81,0,0,1,2-.37,2.93,2.93,0,0,1,1,.16,5.05,5.05,0,0,1,.81.39A4.38,4.38,0,0,1,115,19a1.67,1.67,0,0,1,.92-.8,2.52,2.52,0,0,1,1.21-.19,1.31,1.31,0,0,1,.88.44c.2.25.17.58-.07,1s-.55,1.1-.92,1.82-.75,1.46-1.15,2.21-.77,1.45-1.13,2.11a14.14,14.14,0,0,1-.85,1.45c-.18.34-.25.57-.2.71s.17.2.39.19a1.79,1.79,0,0,0,.73-.26,3.56,3.56,0,0,0,.83-.64c.52-.55.94-1,1.26-1.31A8.75,8.75,0,0,0,117.94,24.46Zm-6.76,1.29A9.78,9.78,0,0,0,113,22.33a3.93,3.93,0,0,0,.16-1.34,1.14,1.14,0,0,0-.41-.85,1.19,1.19,0,0,0-1-.16,3.88,3.88,0,0,0-1.24.53,9,9,0,0,0-1.38,1.1,16.89,16.89,0,0,0-1.4,1.57A13.72,13.72,0,0,0,106.58,25a8.16,8.16,0,0,0-.67,1.63,3.62,3.62,0,0,0-.13,1.34,1.19,1.19,0,0,0,.43.85,1.1,1.1,0,0,0,.9.18,3.7,3.7,0,0,0,1.26-.5,8.32,8.32,0,0,0,1.41-1.11A13.48,13.48,0,0,0,111.18,25.75Z"/></g></g></svg>