<svg xmlns="http://www.w3.org/2000/svg" viewBox="0 0 107.4 32"><defs><style>.cls-1{fill:#fff;}</style></defs><g id="Layer_2" data-name="Layer 2"><g id="Layer_1-2" data-name="Layer 1"><path class="cls-1" d="M12.51,5.78c.88-.44,2-1,3.46-1.58s3-1.17,4.63-1.69a52.35,52.35,0,0,1,5.18-1.35,24.85,24.85,0,0,1,5-.56,11.61,11.61,0,0,1,4.28.75A5.36,5.36,0,0,1,38,3.87a1.86,1.86,0,0,1,.16,1.51,3.29,3.29,0,0,1-.93,1.37,8.17,8.17,0,0,1-1.63,1.16,19.08,19.08,0,0,1-2,.91,14.19,14.19,0,0,1-1.86.6,6.14,6.14,0,0,1-1.33.21,4.84,4.84,0,0,1-1.78-.23,3.24,3.24,0,0,1-1.11-.62.71.71,0,0,1-.29-.69c.05-.22.29-.35.7-.41s.79-.16,1.39-.31,1.22-.34,1.9-.56a21.23,21.23,0,0,0,2-.76A16.1,16.1,0,0,0,35,5.18a3,3,0,0,0,1-.89.67.67,0,0,0-.08-.87,3.86,3.86,0,0,0-2.69-.93A16.16,16.16,0,0,0,29,3,40.7,40.7,0,0,0,23.81,4.6Q21,5.65,18.22,7c-1.87.91-3.69,1.88-5.44,2.92A52.68,52.68,0,0,0,8,13.06a24.43,24.43,0,0,0-3.48,3.07A6,6,0,0,0,3,18.77c-.11.53,0,.83.41.91a3.54,3.54,0,0,0,1.41,0,10.92,10.92,0,0,0,1.68-.43,11.84,11.84,0,0,1,1.22-.37c1.07-.28,2.2-.59,3.37-.93s2.35-.67,3.54-1,2.37-.53,3.54-.74A17,17,0,0,1,21.58,16a5.79,5.79,0,0,1,2.17.6A7.22,7.22,0,0,1,25.82,18,4.83,4.83,0,0,1,27,20.12a3.18,3.18,0,0,1-.37,2.46,10.66,10.66,0,0,1-2.43,2.73,24.71,24.71,0,0,1-3.78,2.57A35.26,35.26,0,0,1,15.86,30,33,33,0,0,1,11,31.46,21.6,21.6,0,0,1,6.55,32,8.68,8.68,0,0,1,3,31.36a4.84,4.84,0,0,1-1.84-1.51,5.63,5.63,0,0,1-1-2.16A3.72,3.72,0,0,1,.26,25.5a3.24,3.24,0,0,1,1.65-1.68,1.32,1.32,0,0,1,.92,0,2.31,2.31,0,0,1,.84.48,1.45,1.45,0,0,1,.46.66.46.46,0,0,1-.23.56A6.63,6.63,0,0,0,2,27.18a1,1,0,0,0-.17,1.16A1.87,1.87,0,0,0,3,29a8.11,8.11,0,0,0,2,.23,19.27,19.27,0,0,0,2.44-.17,13.55,13.55,0,0,0,2.44-.54,45.2,45.2,0,0,0,6.93-2.75,27.76,27.76,0,0,0,6.52-4.53c1-.94,1.51-1.62,1.47-2.05s-.44-.67-1.2-.73a13.9,13.9,0,0,0-3.08.25c-1.3.22-2.68.49-4.16.81l-4.45,1c-1.49.33-2.79.58-3.89.75a9.43,9.43,0,0,1-1.72.1,13.53,13.53,0,0,1-1.82-.16,8.69,8.69,0,0,1-1.7-.46,4.2,4.2,0,0,1-1.34-.81,3.21,3.21,0,0,1-1.2-3.27,8.42,8.42,0,0,1,2.13-3.72A24.66,24.66,0,0,1,6.78,9.17,49.92,49.92,0,0,1,12.51,5.78Z"/><path class="cls-1" d="M33.41,15.13a2,2,0,0,1,1.06.29,1.11,1.11,0,0,1,.55.79,2.26,2.26,0,0,1,1.54,1A3.05,3.05,0,0,1,36.93,19a3.52,3.52,0,0,0,2-.33,4.14,4.14,0,0,0,1.51-1.12,2,2,0,0,1,.6-.49.45.45,0,0,1,.43,0,.31.31,0,0,1,.17.31,1.06,1.06,0,0,1-.17.51,6.67,6.67,0,0,1-1.92,2,7,7,0,0,1-3.34,1.16,6.27,6.27,0,0,1-1.34,1.49,5.43,5.43,0,0,1-1.93,1,2.09,2.09,0,0,1-1.22,0,4,4,0,0,1-1.4-.62,3.82,3.82,0,0,1-1.14-1.16,2.14,2.14,0,0,1-.33-1.57,5.62,5.62,0,0,1,.47-1.72,7.36,7.36,0,0,1,1-1.63,5.32,5.32,0,0,1,1.38-1.22A3.22,3.22,0,0,1,33.41,15.13Z"/><path class="cls-1" d="M31.75,22q.21.33.87,0a4.39,4.39,0,0,0,1.29-1,2.86,2.86,0,0,1-.79-.89,4,4,0,0,1-.46-1.31,6.63,6.63,0,0,0-1,1.89A1.38,1.38,0,0,0,31.75,22Z"/><path class="cls-1" d="M41.89,15.34a1,1,0,0,1,.79-.1,2.85,2.85,0,0,1,1,.37,4.28,4.28,0,0,1,.83.62,1.21,1.21,0,0,1,.42.64.83.83,0,0,1-.17.64,8.24,8.24,0,0,1-.64.93l-.83,1-.74.93a2.88,2.88,0,0,0-.4.6c-.05.14,0,.17.25.08a4.08,4.08,0,0,0,.81-.52q.51-.39,1.14-.93c.41-.35.84-.73,1.28-1.13l1.24-1.14,1-.91a4,4,0,0,1,.58-.46,1.32,1.32,0,0,1,.54,0,2.62,2.62,0,0,1,.68.29,2.43,2.43,0,0,1,.63.52,2.29,2.29,0,0,1,.39.64c.08.22,0,.53-.31.93s-.61.81-1,1.22-.65.79-.89,1.12-.31.55-.17.66.41,0,.89-.31,1-.65,1.64-1.07,1.19-.87,1.75-1.31,1-.77,1.23-1c.49-.44.84-.55,1-.31s.15.57-.12,1c-.17.2-.49.55-1,1.06s-1,1-1.59,1.59a20.94,20.94,0,0,1-1.74,1.49,3.69,3.69,0,0,1-1.36.75,2.59,2.59,0,0,1-1.14,0,4.07,4.07,0,0,1-1.14-.48,3.75,3.75,0,0,1-.93-.79,2,2,0,0,1-.48-.95,1.22,1.22,0,0,1,0-.6,1.48,1.48,0,0,1,.17-.39l-1.18,1c-.43.38-.85.73-1.26,1.06a13.87,13.87,0,0,1-1.16.83,1.88,1.88,0,0,1-.91.33,2.49,2.49,0,0,1-.71-.15,4.63,4.63,0,0,1-.89-.39,4.56,4.56,0,0,1-.78-.56,1.29,1.29,0,0,1-.44-.68,2.59,2.59,0,0,1,.35-1.2c.27-.55.58-1.15,1-1.78a17.25,17.25,0,0,1,1.22-1.84A12.27,12.27,0,0,1,41.89,15.34Z"/><path class="cls-1" d="M55.6,14.3c-1.3-.27-1.8-.58-1.49-.91a8.17,8.17,0,0,1,2.6-.29A12.16,12.16,0,0,1,58,12.15a2.07,2.07,0,0,1,1.12-.37,2,2,0,0,1,1.08.39,3.36,3.36,0,0,1,.91.89c1.41,0,2.91,0,4.51,0l4.88-.12q3.15-.09,6.17-.25c2-.11,3.84-.22,5.47-.33l4-.29c1.08-.09,1.74-.13,2-.13a6.13,6.13,0,0,1,1.55.23,10,10,0,0,1,1.55.54,4.36,4.36,0,0,1,1.1.66c.26.24.31.45.14.64a3.76,3.76,0,0,1-1.61.19H87l-5.5-.06L74.9,14H67.76q-3.63,0-7.07.19a12,12,0,0,0-1.16,1c-.47.45-1,.93-1.45,1.45s-1,1.08-1.47,1.66-.89,1.12-1.22,1.61a5.51,5.51,0,0,0-.68,1.31c-.13.37-.09.63.1.76s.55,0,1.16-.37,1.26-.79,2-1.28,1.38-1,2-1.47A13.77,13.77,0,0,1,61.31,18c.49-.33.85-.4,1.07-.21s.21.45,0,.79q-.21.24-1,1a22.32,22.32,0,0,1-1.84,1.66,18.68,18.68,0,0,1-2.2,1.51,4.08,4.08,0,0,1-2,.66,2.33,2.33,0,0,1-2.22-.93,3.61,3.61,0,0,1-.31-2.32,10.15,10.15,0,0,1,1-3A16.45,16.45,0,0,1,55.6,14.3Z"/><path class="cls-1" d="M79.36,2.59a2.22,2.22,0,0,1-.48,1.72A17.83,17.83,0,0,1,77,6.77c-.83.91-1.8,1.88-2.9,2.92s-2.26,2.07-3.48,3.1-2.43,2-3.66,3-2.35,1.83-3.38,2.57c-.24.44-.44.81-.57,1.12a3.05,3.05,0,0,0-.27.66c0,.17,0,.18.14,0s.5-.43,1-.89l1.62-1.45c.58-.51,1.15-1,1.72-1.45a6.42,6.42,0,0,1,1.34-.89,1.1,1.1,0,0,1,.87,0,2.21,2.21,0,0,1,.75.52,2.93,2.93,0,0,1,.53.75,3.62,3.62,0,0,1,.29.64c.06.19-.09.51-.43.95L69.4,19.71c-.4.48-.74.91-1,1.3s-.35.62-.19.7a1.34,1.34,0,0,0,.68-.18,11.67,11.67,0,0,0,1.2-.62c.46-.27,1-.57,1.47-.91L73,19c.47-.32.89-.6,1.25-.87a7.48,7.48,0,0,0,.74-.6q.7-.54,1.14-.27c.29.18.29.45,0,.81-.14.17-.42.48-.85.95s-.94,1-1.53,1.51A16.19,16.19,0,0,1,71.89,22,6.39,6.39,0,0,1,70,23a3.76,3.76,0,0,1-2,0,2.93,2.93,0,0,1-2-2,2.19,2.19,0,0,1,0-1.27,15.3,15.3,0,0,1-1.2,1q-.49.45-1,.87l-.79.66a2.27,2.27,0,0,1-.8.48,3.62,3.62,0,0,1-1.08.2,2.24,2.24,0,0,1-1-.16.86.86,0,0,1-.52-.68,5.62,5.62,0,0,1,.62-2.2,38.93,38.93,0,0,1,2-4q1.26-2.28,2.92-4.87t3.41-4.86a34.84,34.84,0,0,1,3.48-3.93A8.59,8.59,0,0,1,75,.15,2.74,2.74,0,0,1,76.07,0a3.6,3.6,0,0,1,1.26.29,3.92,3.92,0,0,1,1.18.83A3.64,3.64,0,0,1,79.36,2.59Z"/><path class="cls-1" d="M77.74,1.64c-.11-.14-.36,0-.76.29a16.5,16.5,0,0,0-1.49,1.43c-.6.62-1.26,1.35-2,2.19S72,7.27,71.29,8.18q-2.61,3.18-5.88,7.32c.33-.27.89-.78,1.69-1.51s1.69-1.57,2.65-2.52,2-2,3-3,1.93-2.07,2.71-3A28.37,28.37,0,0,0,77.31,3C77.76,2.31,77.91,1.86,77.74,1.64Z"/><path class="cls-1" d="M84.4,18.11c.53-.38.82-.51.87-.37s0,.4-.29.79a13.27,13.27,0,0,1-1,1.44,15,15,0,0,1-1.51,1.58,14.24,14.24,0,0,1-1.74,1.32,4.69,4.69,0,0,1-1.7.71,2.93,2.93,0,0,1-1.41-.27,6.52,6.52,0,0,1-1.67-1,6.14,6.14,0,0,1-1.35-1.53A2.45,2.45,0,0,1,74.18,19a3.34,3.34,0,0,1,.62-1.43,6.73,6.73,0,0,1,1.12-1.2,6.36,6.36,0,0,1,1.26-.83,2.72,2.72,0,0,1,1.1-.31,2.11,2.11,0,0,1,.84.21A3.53,3.53,0,0,1,80,16a2.57,2.57,0,0,1,.63.77,1.54,1.54,0,0,1,.18.89,2.28,2.28,0,0,1-.62,1.05A14.94,14.94,0,0,1,79,19.85a21.64,21.64,0,0,1-1.74,1.37,5.2,5.2,0,0,0,2.92-.58A19.29,19.29,0,0,0,84.4,18.11Z"/><path class="cls-1" d="M79.52,17.33c-.11-.09-.37,0-.77.18a6.54,6.54,0,0,0-1.18.81,5.28,5.28,0,0,0-1,1.1,1,1,0,0,0-.19,1,5.06,5.06,0,0,0,.81-.58c.37-.3.75-.63,1.12-1s.68-.69.93-1S79.6,17.41,79.52,17.33Z"/><path class="cls-1" d="M86.15,17.37a.58.58,0,0,0,.49.14,2.57,2.57,0,0,0,.69-.14,6.58,6.58,0,0,0,.66-.29,1.82,1.82,0,0,0,.43-.29c.06-.11.2-.17.44-.17a1.94,1.94,0,0,1,.72.15,2.21,2.21,0,0,1,.69.41,1.23,1.23,0,0,1,.39.64,1.74,1.74,0,0,1-.31.95Q90,19.4,89.6,20a8.87,8.87,0,0,0-.6,1.05c-.14.3-.09.46.13.46a2,2,0,0,0,1-.48,17.18,17.18,0,0,0,1.34-1.1c.47-.41.92-.82,1.33-1.24l.91-.91c.41-.36.77-.5,1.06-.41s.25.37-.11.87c-.16.24-.42.6-.76,1.07s-.74,1-1.18,1.49a18.1,18.1,0,0,1-1.41,1.49,4.81,4.81,0,0,1-1.49,1,1.8,1.8,0,0,1-.93,0,5.52,5.52,0,0,1-1.22-.42,3.51,3.51,0,0,1-1.08-.76,1.41,1.41,0,0,1-.41-1.1,2.78,2.78,0,0,1,.27-1.14c.18-.4.37-.83.6-1.3a3.2,3.2,0,0,1-1.54,0A2.86,2.86,0,0,1,84.2,18a1.59,1.59,0,0,1-.58-1,1.72,1.72,0,0,1,.54-1.3,2.23,2.23,0,0,1,1.3-.87,1.23,1.23,0,0,1,1,.27,1.26,1.26,0,0,1,.35,1A1.86,1.86,0,0,1,86.15,17.37Z"/><path class="cls-1" d="M94.55,16.25a.65.65,0,0,1,.6-.19,1.56,1.56,0,0,1,.66.29,2.38,2.38,0,0,1,.56.58,1.54,1.54,0,0,1,.29.64,1.41,1.41,0,0,1,0,.73,5.92,5.92,0,0,1-.29.87c-.12.29-.24.55-.35.78a4,4,0,0,0-.21.52,6.78,6.78,0,0,0,.95-.85c.5-.48,1-1,1.58-1.55s1.07-1.05,1.55-1.49a4.54,4.54,0,0,1,.93-.74,1,1,0,0,1,.58,0,3.91,3.91,0,0,1,.83.25,3.69,3.69,0,0,1,.74.46,1.19,1.19,0,0,1,.42.6,1.8,1.8,0,0,1-.31,1.07c-.27.5-.55,1-.85,1.56s-.58,1-.81,1.45-.28.68-.14.76.44,0,.91-.33,1-.68,1.55-1.12,1.09-.89,1.59-1.34l1.08-1a1.14,1.14,0,0,1,.56-.31.38.38,0,0,1,.35.15.56.56,0,0,1,.1.41,1.23,1.23,0,0,1-.18.54q-.21.29-.87,1c-.45.48-.93,1-1.47,1.53s-1.06,1-1.56,1.47a3.57,3.57,0,0,1-1.15.78,2.67,2.67,0,0,1-1.39.15,7.2,7.2,0,0,1-1.47-.37,3.71,3.71,0,0,1-1.18-.71,1.4,1.4,0,0,1-.52-.89,1.47,1.47,0,0,1,.15-.66,10.59,10.59,0,0,1,.43-1c.17-.34.33-.64.48-.91a3.24,3.24,0,0,0,.23-.46c-.8.86-1.46,1.53-2,2s-1,1-1.53,1.36a2.25,2.25,0,0,1-1.1.62,2.12,2.12,0,0,1-1.12-.35,1.46,1.46,0,0,1-.7-1.05,3.68,3.68,0,0,1,.1-1A13.69,13.69,0,0,1,93,19a11.34,11.34,0,0,1,.66-1.57A3.76,3.76,0,0,1,94.55,16.25Z"/></g></g></svg>