<svg xmlns="http://www.w3.org/2000/svg" viewBox="0 0 111.42 32"><defs><style>.cls-1{fill:#fff;}</style></defs><g id="Layer_2" data-name="Layer 2"><g id="Layer_1-2" data-name="Layer 1"><path class="cls-1" d="M5,32c-1.86,0-3.15-.38-3.89-1.15A5.38,5.38,0,0,1,0,27.06V3.93A3.78,3.78,0,0,1,1.08,1,3.74,3.74,0,0,1,3.75,0h8.43l1.11,6H7.15c-.38,0-.57.2-.57.62V25.42c0,.42.19.62.57.62h6.14l-1.15,6Zm16.65-4-.58,4H14.62L20.4,0h6.84L33,32H26.58L26,28Zm.7-5.08h3L23.84,11.61ZM47.36,0a3.63,3.63,0,0,1,2.85,1.06,4.09,4.09,0,0,1,.95,2.82V19.2a7,7,0,0,1-.2,1.7,3.18,3.18,0,0,1-.73,1.35,3.57,3.57,0,0,1-1.41.9,6.39,6.39,0,0,1-2.21.33H41.14V32H34.78V0ZM41.14,5.61V18.18h3.18c.26,0,.43-.05.5-.15a.84.84,0,0,0,.11-.51V6.22c0-.41-.19-.61-.57-.61ZM66.43,0,68,6H63.74V32H57.21V6H52.93L54.6,0Zm6.85,28-.57,4H66.26L72,0h6.85l5.78,32H78.22l-.57-4ZM74,23h3L75.49,11.61ZM86.42,0h6.4V32h-6.4Zm9.06,0h6.09l3.27,12.84V0h6.58V32h-6.58L101.4,18.63V32H95.48Z"/></g></g></svg>
