<svg xmlns="http://www.w3.org/2000/svg" viewBox="0 0 124.39 30.37"><defs><style>.cls-1{fill:#fff;}</style></defs><g id="Layer_2" data-name="Layer 2"><g id="Layer_1-2" data-name="Layer 1"><path class="cls-1" d="M86.47,22.33a9.15,9.15,0,0,0,3.68-.72,22,22,0,0,0,3.29-1.83l5.15,6.78a11.23,11.23,0,0,1-2.74,1.88,16.83,16.83,0,0,1-3.2,1.15,23.78,23.78,0,0,1-3.54.61c-1.22.11-2.46.17-3.75.17a38.72,38.72,0,0,1-3.9-.2c-1.28-.13-2.49-.3-3.63-.53a29,29,0,0,1-3.15-.79,16.5,16.5,0,0,1-2.46-1L81.51,9.15H74.58V.48H95.85L85.7,22.33Zm28.24-10.19a4.91,4.91,0,0,0-1.2-1.7,5.71,5.71,0,0,0-1.81-1.15,5.65,5.65,0,0,0-4.37,0,5.52,5.52,0,0,0-3,2.85,4.93,4.93,0,0,0,0,4.16,5.52,5.52,0,0,0,3,2.85,5.65,5.65,0,0,0,4.37,0A5.71,5.71,0,0,0,113.51,18a4.91,4.91,0,0,0,1.2-1.7,5.14,5.14,0,0,0,0-4.16Zm8.5,7.73a14.64,14.64,0,0,1-3.2,4.55,14.79,14.79,0,0,1-4.77,3.06,16,16,0,0,1-11.67,0,14.66,14.66,0,0,1-7.94-7.61,13.74,13.74,0,0,1,0-11.14,14.52,14.52,0,0,1,3.2-4.54,15.58,15.58,0,0,1,4.74-3.06,15.63,15.63,0,0,1,11.67,0A15.49,15.49,0,0,1,120,4.19a14.36,14.36,0,0,1,3.2,4.54,13.74,13.74,0,0,1,0,11.14ZM65.73,9.15v19H56.68v-19H51.1V.48H71.26V9.15Zm-25.07.14a2.09,2.09,0,0,0-1.54-.63h-1.4V12.9h1.4a2.09,2.09,0,0,0,1.54-.63,2.08,2.08,0,0,0,0-3Zm6.26,9.14,6.3,9.67H43.5q-2.11-3-3.28-4.5a22,22,0,0,0-1.68-2c-.35-.34-.56-.45-.62-.34a.68.68,0,0,0-.1.36V28.1h-9V.48H39.84a9,9,0,0,1,3.85.87,10.72,10.72,0,0,1,3.23,2.26A10.34,10.34,0,0,1,49.25,7,10,10,0,0,1,50,10.88a10.62,10.62,0,0,1-.79,4A11,11,0,0,1,46.92,18.43ZM13.86,11.21l-1.54,5.92h3ZM18.53,28.1l-.87-3.17H10L9.14,28.1H0L8.9.48h9.87l8.9,27.62Z"/></g></g></svg>