<svg xmlns="http://www.w3.org/2000/svg" viewBox="0 0 118.33 31.97"><defs><style>.cls-1{fill:#fff;}</style></defs><g id="Layer_2" data-name="Layer 2"><g id="Layer_1-2" data-name="Layer 1"><path class="cls-1" d="M31.72,4.06c.28.31.36.55.25.73s-.35.16-.71,0a2.7,2.7,0,0,0-1.12-.31,1.37,1.37,0,0,1-.93-.34,7.22,7.22,0,0,0-2.55-1.64,10.49,10.49,0,0,0-3.09-.68,13.06,13.06,0,0,0-3.18.15,11.45,11.45,0,0,0-2.83.84,15.33,15.33,0,0,0-3,1.85,31.44,31.44,0,0,0-3.32,2.87A37.5,37.5,0,0,0,8,11.09a34.59,34.59,0,0,0-2.76,4.06,24.45,24.45,0,0,0-2,4.2,13.41,13.41,0,0,0-.78,4.1,1.49,1.49,0,0,0,.27.95,1.68,1.68,0,0,0,.7.52,3.27,3.27,0,0,0,.94.19,8.87,8.87,0,0,0,.91,0,12.54,12.54,0,0,0,3-.69,23.84,23.84,0,0,0,2.95-1.27q1.46-.75,2.76-1.59c.88-.55,1.68-1.09,2.4-1.61s1.36-1,1.91-1.39.95-.7,1.23-.88A4.52,4.52,0,0,1,20.91,17a2.43,2.43,0,0,0,1-.36l1.28-.82c.3-.17.48-.22.53-.15s0,.23-.26.46c-1.07,1.14-2.19,2.23-3.36,3.25s-2.36,2-3.57,3A28.52,28.52,0,0,1,14.24,24a29.6,29.6,0,0,1-2.82,1.62,25.68,25.68,0,0,1-3,1.26,8.79,8.79,0,0,1-2.83.51A6.27,6.27,0,0,1,3,26.93a4.4,4.4,0,0,1-1.73-1.31,5.5,5.5,0,0,1-1-1.89A7.83,7.83,0,0,1,0,21.54a13.47,13.47,0,0,1,.86-4.32A24.64,24.64,0,0,1,3,12.73a32.35,32.35,0,0,1,3.1-4.29A34.75,34.75,0,0,1,9.79,4.73,25.78,25.78,0,0,1,13.61,2,13.13,13.13,0,0,1,17.25.44,21.4,21.4,0,0,1,21,0a15.6,15.6,0,0,1,7.54,1.67A11.62,11.62,0,0,1,31.72,4.06ZM20.38,19.11a5.62,5.62,0,0,1-.63.49c-.09,0-.13,0-.12-.05a1.67,1.67,0,0,1,.16-.39,4.13,4.13,0,0,0,.21-.43,7,7,0,0,0,.41-1.43,1.79,1.79,0,0,1,.42-1l.73-.86c.33-.39.72-.82,1.18-1.28a19.58,19.58,0,0,1,1.54-1.37,10.63,10.63,0,0,1,1.77-1.14,1,1,0,0,1,.8-.06,2.5,2.5,0,0,1,.8.4,1.9,1.9,0,0,1,.53.61.52.52,0,0,1,0,.57A18.47,18.47,0,0,1,27.06,15c-.5.7-1,1.44-1.49,2.23s-.94,1.59-1.35,2.4a9.93,9.93,0,0,0-.83,2.25,11,11,0,0,0,1.94-1.41c.68-.61,1.35-1.28,2-2s1.31-1.46,2-2.21l1.77-2.08a.57.57,0,0,1,.66-.22,1.67,1.67,0,0,1,.73.43,2.07,2.07,0,0,1,.47.78,1,1,0,0,1,0,.8,17.89,17.89,0,0,0-1.41,3.58A22.76,22.76,0,0,0,34,17.89c.79-.61,1.41-1.08,1.87-1.41a1.92,1.92,0,0,1,.45-.23l.5-.15a4.84,4.84,0,0,0,.61-.23q.35-.15.84-.42c.43-.23.66-.3.68-.23s-.11.27-.42.57c-.56.56-1.15,1.16-1.79,1.79s-1.28,1.25-1.94,1.85-1.31,1.16-2,1.68A11,11,0,0,1,31,22.34a.71.71,0,0,1-.61.06,2.29,2.29,0,0,1-.66-.3,2,2,0,0,1-.54-.5.93.93,0,0,1-.21-.55A5.34,5.34,0,0,1,29,19.83c-.66.69-1.35,1.34-2.07,2a18.72,18.72,0,0,1-2.42,1.74,1.64,1.64,0,0,1-.9.15,5,5,0,0,1-1.18-.23,3.28,3.28,0,0,1-1-.55A1.19,1.19,0,0,1,21,22a3.48,3.48,0,0,1,.17-1.29,14,14,0,0,1,.53-1.43c.22-.5.46-1,.73-1.47l.74-1.37c-.48.46-.95.91-1.41,1.37S20.81,18.73,20.38,19.11Zm19.34-3.85C39.09,16,38.5,16.64,38,17.2a2.66,2.66,0,0,1-1.24.88,5,5,0,0,1-.63,0,1.39,1.39,0,0,0-.66.21,3.79,3.79,0,0,0-.84.55,7.69,7.69,0,0,1-.76.57c-.18.12-.21.07-.1-.13s.52-.74,1.2-1.6q1.65-2.06,3.18-4a43.51,43.51,0,0,0,2.65-3.77.49.49,0,0,1,.53-.17A2.42,2.42,0,0,1,42,10a2,2,0,0,1,.65.49c.18.21.26.38.23.53-.13.41-.24.81-.34,1.2s-.19.8-.27,1.2a5.87,5.87,0,0,1,2.59-1,2.6,2.6,0,0,1,1.43.27,5,5,0,0,1,1.26.86,4.54,4.54,0,0,1,.87,1.08,1.72,1.72,0,0,1,.29.95,3.9,3.9,0,0,1-.84,2.23,7.45,7.45,0,0,1-1.83,1.66,13.87,13.87,0,0,0,2.34-1c.63-.36,1.16-.68,1.6-1s.82-.55,1.13-.76a2.14,2.14,0,0,1,.91-.4,2,2,0,0,1,.38,0,.79.79,0,0,0,.32-.08,1.78,1.78,0,0,0,.4-.26l.65-.54c.18-.17.29-.23.34-.17s.05.12,0,.17a15.22,15.22,0,0,1-2,2.55,18.16,18.16,0,0,1-2.61,2.27,17.45,17.45,0,0,1-2.95,1.7,10.19,10.19,0,0,1-3.07.83,1.88,1.88,0,0,1-.69-.07,8.71,8.71,0,0,1-1-.31,4.36,4.36,0,0,1-.89-.45,1.66,1.66,0,0,1-.55-.54l-.16.42c-.3.84-.61,1.7-.91,2.57s-.64,1.75-1,2.63a25.68,25.68,0,0,1-1.22,2.53,13.15,13.15,0,0,1-1.54,2.25.59.59,0,0,1-.55.17,1.12,1.12,0,0,1-.63-.38,2.36,2.36,0,0,1-.48-.86,3,3,0,0,1-.09-1.22,20.47,20.47,0,0,1,1.71-5.9,67.69,67.69,0,0,1,3.09-6.05c.12-.23.26-.46.4-.69a7.31,7.31,0,0,1,.43-.65Zm6.74-.95a4.67,4.67,0,0,0-2.91,1.12,11.55,11.55,0,0,0-2.15,2.42q-.19.76-.36,1.47c-.12.47-.25,1-.4,1.46l.22-.11a9.67,9.67,0,0,0,1.74-1,13.49,13.49,0,0,0,1.84-1.49,8.09,8.09,0,0,0,1.47-1.85A3.75,3.75,0,0,0,46.46,14.31ZM54,20.9a8.53,8.53,0,0,0,2.7-.54,15.54,15.54,0,0,0,2.57-1.23,21.57,21.57,0,0,0,2.36-1.64c.75-.6,1.43-1.16,2-1.7a.61.61,0,0,1,.46-.19c.12,0,.1.18-.08.46a5.56,5.56,0,0,0-.63,1.52,2,2,0,0,1-.36.92,11.52,11.52,0,0,1-.82.89,10.24,10.24,0,0,1-1.18,1c-.44.34-.91.67-1.39,1a7.3,7.3,0,0,1-1.45.73,7.62,7.62,0,0,1-1.37.43,7.83,7.83,0,0,1-1.52.21,3.32,3.32,0,0,1-1.16-.26,5.16,5.16,0,0,1-1.26-.73,6.46,6.46,0,0,1-1-1,1.83,1.83,0,0,1-.47-1,10.14,10.14,0,0,1,.23-3.54,11.4,11.4,0,0,1,1.23-3,8.58,8.58,0,0,1,2-2.33A8.49,8.49,0,0,1,57.5,9.43a1.72,1.72,0,0,1,1.07,0,4.91,4.91,0,0,1,1.16.55,4.24,4.24,0,0,1,.91.8,1.36,1.36,0,0,1,.36.82,2.21,2.21,0,0,1-.26,1,10.4,10.4,0,0,1-.67,1.17c-.26.4-.56.82-.87,1.25l-.9,1.22c-.28.36-.48.48-.61.38s-.11-.37,0-.8q.15-.42.21-.66a2,2,0,0,0,.06-.44,1,1,0,0,0-.06-.36,3.33,3.33,0,0,1-.1-.4,1.49,1.49,0,0,1,.06-.58,6,6,0,0,1,.25-.64c.1-.23.2-.47.3-.73a4.11,4.11,0,0,0,.23-.8,5.3,5.3,0,0,0-2,1.43A10.44,10.44,0,0,0,55,15.07,11.24,11.24,0,0,0,54,18,6.84,6.84,0,0,0,54,20.9Zm11.2-7a19.07,19.07,0,0,1,2.07-1.77,4.82,4.82,0,0,1,1.64-.8,2.12,2.12,0,0,1,1.39.11,4.26,4.26,0,0,1,1.33,1l.58-.87a.57.57,0,0,1,.62-.19,2,2,0,0,1,.84.34,1.92,1.92,0,0,1,.61.63.51.51,0,0,1,0,.63,9.23,9.23,0,0,0-.68,1.1c-.33.58-.68,1.25-1,2s-.7,1.49-1,2.23A9.08,9.08,0,0,0,71,20.1a.36.36,0,0,0,0,.19v.23a12.86,12.86,0,0,0,1.49-1c.55-.4,1.1-.81,1.63-1.23l1.51-1.2,1.08-.88a2.51,2.51,0,0,1,.54-.32,4.13,4.13,0,0,1,.45-.17l.5-.18a2.79,2.79,0,0,0,.61-.32c.15-.1.26-.13.32-.09s0,.14-.09.32c-1,1.32-2,2.6-3.16,3.85-.31.33-.65.71-1,1.14a10.62,10.62,0,0,1-1.24,1.18,5.52,5.52,0,0,1-1.39.82,2.24,2.24,0,0,1-1.49.06,2.84,2.84,0,0,1-1.79-1,2.16,2.16,0,0,1-.19-1.64,24.72,24.72,0,0,1-1.52,2,5.85,5.85,0,0,1-1.48,1.33c-1.73,1-3,.67-3.89-1.1a3.37,3.37,0,0,1-.3-1.39,5.23,5.23,0,0,1,.32-1.93A10.56,10.56,0,0,1,63,16.5,14.45,14.45,0,0,1,65.2,13.89Zm.53,6.25q1.48-1.61,2.84-3.39c.9-1.2,1.76-2.4,2.57-3.62a2,2,0,0,0-1.22.32,12.22,12.22,0,0,0-1.43,1c-.47.37-.9.73-1.29,1.09a7.17,7.17,0,0,0-.78.76q-.47.54-1,1.35c-.39.55-.76,1.11-1.1,1.7a10.88,10.88,0,0,0-.82,1.64,1.55,1.55,0,0,0-.15,1.14c.15.23.39.17.74-.17Zm28.6-3.77a2.41,2.41,0,0,1,.42-.18l.4-.11.49-.17c.19-.08.43-.19.71-.34s.52-.28.57-.21,0,.23-.31.51c-.51.63-1.11,1.32-1.82,2.06S93.34,19.35,92.58,20a20.81,20.81,0,0,1-2.25,1.68,5.1,5.1,0,0,1-1.94.82,4.45,4.45,0,0,1-2.4-.29A3,3,0,0,1,84.43,21,3.47,3.47,0,0,1,84,19.45a10.69,10.69,0,0,1,0-1.79,1.27,1.27,0,0,1,.87-1.07A12.21,12.21,0,0,0,86,16a9.76,9.76,0,0,0,1.22-.87A8.56,8.56,0,0,0,88.27,14,3.41,3.41,0,0,0,89,12.78,6.59,6.59,0,0,0,86.75,14a17.7,17.7,0,0,0-1.94,1.73,26.5,26.5,0,0,0-1.77,2c-.6.75-1.15,1.46-1.66,2.15s-.94,1.29-1.29,1.83-.59.87-.69,1a1.14,1.14,0,0,1-.78.55,2.18,2.18,0,0,1-1.77-.48.45.45,0,0,1-.15-.57l3.58-6.47a25.64,25.64,0,0,1-2.17,1.86,22.24,22.24,0,0,1-2.4,1.6c-.31.2-.61.39-.92.55s-.54.29-.7.37-.25.08-.25,0,.14-.23.42-.51a13.84,13.84,0,0,0,1.39-1.58,5,5,0,0,0,.67-1.2,2.78,2.78,0,0,1,.93-1.24l2-1.81c.76-.71,1.58-1.53,2.46-2.45a24.37,24.37,0,0,0,2.49-3.18c.48-1,1-2,1.39-3.07S86.42,3,86.83,2c.07-.18.22-.24.45-.19a1.56,1.56,0,0,1,.71.4,3.34,3.34,0,0,1,.64.78,1.44,1.44,0,0,1,.25,1,4.42,4.42,0,0,1-.25,1.22,7.47,7.47,0,0,1-.49,1.16,6.26,6.26,0,0,1-.59,1c-.2.27-.37.48-.5.63-.22.51-.42,1-.59,1.32s-.33.71-.51,1-.36.68-.53,1-.4.78-.65,1.26a14.18,14.18,0,0,1,1.92-1,5.2,5.2,0,0,1,2.19-.34,1.76,1.76,0,0,1,.78.23,3.67,3.67,0,0,1,.88.59,3.06,3.06,0,0,1,.65.83,1.31,1.31,0,0,1,.13.94,5.29,5.29,0,0,1-.69,1.48,8.26,8.26,0,0,1-1.16,1.43A8.88,8.88,0,0,1,88,17.85a8.59,8.59,0,0,1-1.56.84,1.66,1.66,0,0,0,.26,1.14c.23.38.41.69.54.92A6.08,6.08,0,0,0,89.13,20c.7-.41,1.38-.87,2.06-1.35s1.28-.94,1.84-1.37A8.46,8.46,0,0,1,94.33,16.37Zm6.36-.84a11.88,11.88,0,0,1-1,1.25A14.69,14.69,0,0,1,98.38,18,11.29,11.29,0,0,1,97,19a4.53,4.53,0,0,1-1.26.59,5.93,5.93,0,0,0,.06.84,1.53,1.53,0,0,0,.25.69.81.81,0,0,0,.8.45,2.66,2.66,0,0,0,1-.3,13.64,13.64,0,0,0,1.84-1.13,22.31,22.31,0,0,0,1.85-1.46c.61-.54,1.2-1.09,1.77-1.66s1.1-1.11,1.58-1.62c.2-.2.35-.27.44-.21s.08.19,0,.37a15.37,15.37,0,0,0-.63,1.63c-.14.46-.26.84-.36,1.15a3.27,3.27,0,0,1-.44.85,11.2,11.2,0,0,1-.91,1.2,13,13,0,0,1-1.28,1.3,7.37,7.37,0,0,1-1.58,1.08,5.26,5.26,0,0,1-1.82.55,4.1,4.1,0,0,1-2-.26,3.65,3.65,0,0,1-2-1.6,4.91,4.91,0,0,1-.63-2.32,7.59,7.59,0,0,1,.38-2.58,12.56,12.56,0,0,1,1-2.38,8.83,8.83,0,0,1,.72-1.1,12.37,12.37,0,0,1,1-1.18,8.6,8.6,0,0,1,1.1-1,2.42,2.42,0,0,1,1.09-.48,2.73,2.73,0,0,1,1.33.33,4.63,4.63,0,0,1,1.18.74,1.47,1.47,0,0,1,.42,1,2.36,2.36,0,0,1-.17,1.07,6.8,6.8,0,0,1-.53,1ZM96.5,16.86a15.57,15.57,0,0,0,1.69-1.94,9.85,9.85,0,0,0,1.28-2.29,3.46,3.46,0,0,0-.71.65,8.08,8.08,0,0,0-.66.88c-.21.3-.4.6-.57.89s-.32.53-.42.71Zm21.13-1c.41-.3.64-.43.69-.36s-.09.28-.42.66c-.61.74-1.24,1.48-1.9,2.21s-1.32,1.43-2,2.08a22,22,0,0,1-2,1.73,8.2,8.2,0,0,1-2,1.14,2.88,2.88,0,0,1-2.61,1.87,4.19,4.19,0,0,1-1.7-.3,4.56,4.56,0,0,1-1.56-1,3.24,3.24,0,0,1-.38-.5,2.27,2.27,0,0,1-.28-.64,1.48,1.48,0,0,1-.06-.65.81.81,0,0,1,.34-.54.76.76,0,0,1,.48-.17c.21,0,.44,0,.68,0s.47,0,.69.08l.51.09c.36,0,.69,0,1,0a5.65,5.65,0,0,0,.93-.07,5.64,5.64,0,0,0,.12-1.16V19.26c0-.69,0-1.38,0-2.08s-.1-1.4-.17-2.11a37.19,37.19,0,0,1-2.91,2.82c-1.06.91-2,1.7-2.84,2.36-.36.28-.52.32-.5.13a1.67,1.67,0,0,1,.35-.7,4.3,4.3,0,0,0,.45-.74,7.39,7.39,0,0,0,.33-.79l.24-.68a1.07,1.07,0,0,1,.31-.46c.33-.33.88-1,1.66-1.86a26.08,26.08,0,0,0,2.49-3.7.46.46,0,0,1,.49-.23,1.75,1.75,0,0,1,.69.25,3.38,3.38,0,0,1,.63.5,1,1,0,0,1,.32.47c.23,1.35.44,2.74.63,4.19a19.75,19.75,0,0,1,.1,4.27,7.72,7.72,0,0,0,1.5-1c.52-.42,1-.85,1.52-1.28s1-.84,1.43-1.22a6.24,6.24,0,0,1,1.26-.84c.28-.12.53-.22.76-.3A2.48,2.48,0,0,0,117.63,15.87Z"/></g></g></svg>