<svg xmlns="http://www.w3.org/2000/svg" viewBox="0 0 123.96 32"><defs><style>.cls-1{fill:#fff;}</style></defs><g id="Layer_2" data-name="Layer 2"><g id="Layer_1-2" data-name="Layer 1"><path class="cls-1" d="M28.53,25.78a17.83,17.83,0,0,1-13.18,6.13C6.13,31.91,0,26,0,16.3,0,6.3,7.52.3,13.22.3a8.05,8.05,0,0,1,6.7,3l1-2.43h6.83V13.17H20c-.13-2.82-1.52-5.47-4.61-5.47s-5.17,3.87-5.17,8.6c0,4.31,2.22,8.18,6.35,8.18,3.65,0,6.52-3.83,6.91-4.26ZM44.37.83V6.57h-2.7v6.56h8.26V6.57H47.37V.83H61.5V6.57H59V25.48H61.5v5.74H47.37V25.48h2.56V18.91H41.67v6.57h2.7v5.74H30.27V25.48h2.4V6.57h-2.4V.83Zm18.87,15C63.24,6.48,69.51,0,78.51,0,89.17,0,94.13,6.39,94.13,16.17S88.64,32,78.81,32C69.72,32,63.24,26.74,63.24,15.87Zm20,.3c0-5.26-1.43-9.47-4.78-9.47-2.66,0-4.48,3.78-4.48,9.17,0,5.7,2,9.3,4.82,9.3S83.25,21.57,83.25,16.17ZM124,25.78a17.83,17.83,0,0,1-13.18,6.13c-9.22,0-15.35-5.91-15.35-15.61,0-10,7.52-16,13.22-16a8.05,8.05,0,0,1,6.7,3l1-2.43h6.83V13.17h-7.79c-.13-2.82-1.52-5.47-4.61-5.47s-5.17,3.87-5.17,8.6c0,4.31,2.22,8.18,6.35,8.18,3.65,0,6.52-3.83,6.91-4.26Z"/></g></g></svg>