<?xml version="1.0" encoding="UTF-8"?>
<svg xmlns="http://www.w3.org/2000/svg" xmlns:xlink="http://www.w3.org/1999/xlink" viewBox="0 0 24 24" width="24px" height="24px">
<g id="surface13305074">
<path style=" stroke:none;fill-rule:nonzero;fill:rgb(100%,100%,100%);fill-opacity:1;" d="M 12 2 C 7.3125 2 3.5 5.8125 3.5 10.5 C 3.5 12.519531 4.222656 14.476562 5.546875 16.023438 C 5.699219 16.195312 9.261719 20.242188 10.449219 21.378906 C 10.882812 21.792969 11.441406 22 12 22 C 12.558594 22 13.117188 21.792969 13.550781 21.378906 C 14.933594 20.058594 18.3125 16.183594 18.460938 16.015625 C 19.777344 14.476562 20.5 12.519531 20.5 10.5 C 20.5 5.8125 16.6875 2 12 2 Z M 12 13 C 10.621094 13 9.5 11.878906 9.5 10.5 C 9.5 9.121094 10.621094 8 12 8 C 13.378906 8 14.5 9.121094 14.5 10.5 C 14.5 11.878906 13.378906 13 12 13 Z M 12 13 "/>
</g>
</svg>
