<?xml version="1.0" encoding="UTF-8"?>
<svg xmlns="http://www.w3.org/2000/svg" xmlns:xlink="http://www.w3.org/1999/xlink" viewBox="0 0 24 24" width="24px" height="24px">
<g id="surface7762600">
<path style=" stroke:none;fill-rule:nonzero;fill:rgb(100%,100%,100%);fill-opacity:1;" d="M 3 4.5 C 2.640625 4.496094 2.304688 4.683594 2.121094 4.996094 C 1.941406 5.308594 1.941406 5.691406 2.121094 6.003906 C 2.304688 6.316406 2.640625 6.503906 3 6.5 L 21 6.5 C 21.359375 6.503906 21.695312 6.316406 21.878906 6.003906 C 22.058594 5.691406 22.058594 5.308594 21.878906 4.996094 C 21.695312 4.683594 21.359375 4.496094 21 4.5 Z M 3 11 C 2.640625 10.996094 2.304688 11.183594 2.121094 11.496094 C 1.941406 11.808594 1.941406 12.191406 2.121094 12.503906 C 2.304688 12.816406 2.640625 13.003906 3 13 L 21 13 C 21.359375 13.003906 21.695312 12.816406 21.878906 12.503906 C 22.058594 12.191406 22.058594 11.808594 21.878906 11.496094 C 21.695312 11.183594 21.359375 10.996094 21 11 Z M 3 17.5 C 2.640625 17.496094 2.304688 17.683594 2.121094 17.996094 C 1.941406 18.308594 1.941406 18.691406 2.121094 19.003906 C 2.304688 19.316406 2.640625 19.503906 3 19.5 L 21 19.5 C 21.359375 19.503906 21.695312 19.316406 21.878906 19.003906 C 22.058594 18.691406 22.058594 18.308594 21.878906 17.996094 C 21.695312 17.683594 21.359375 17.496094 21 17.5 Z M 3 17.5 "/>
</g>
</svg>
